<svg width="25" height="25" viewBox="0 0 25 25" fill="none" xmlns="http://www.w3.org/2000/svg">
<path d="M7.08008 5.06985C7.07981 5.60028 6.86885 6.10888 6.49358 6.48377C6.11832 6.85865 5.60951 7.06911 5.07908 7.06885C4.54865 7.06858 4.04004 6.85761 3.66516 6.48235C3.29027 6.10709 3.07981 5.59828 3.08008 5.06785C3.08034 4.53742 3.29131 4.02881 3.66657 3.65393C4.04183 3.27904 4.55065 3.06858 5.08108 3.06885C5.61151 3.06911 6.12011 3.28008 6.495 3.65534C6.86988 4.0306 7.08034 4.53941 7.08008 5.06985ZM7.14008 8.54985H3.14008V21.0698H7.14008V8.54985ZM13.4601 8.54985H9.48008V21.0698H13.4201V14.4998C13.4201 10.8398 18.1901 10.4998 18.1901 14.4998V21.0698H22.1401V13.1398C22.1401 6.96985 15.0801 7.19985 13.4201 10.2298L13.4601 8.54985Z" fill="black"/>
</svg>
