<svg width="24" height="25" viewBox="0 0 24 25" fill="none" xmlns="http://www.w3.org/2000/svg">
<path d="M12 2.93018C10.6868 2.93018 9.38642 3.18883 8.17317 3.69138C6.95991 4.19393 5.85752 4.93052 4.92893 5.85911C3.05357 7.73447 2 10.278 2 12.9302C2 17.3502 4.87 21.1002 8.84 22.4302C9.34 22.5102 9.5 22.2002 9.5 21.9302V20.2402C6.73 20.8402 6.14 18.9002 6.14 18.9002C5.68 17.7402 5.03 17.4302 5.03 17.4302C4.12 16.8102 5.1 16.8302 5.1 16.8302C6.1 16.9002 6.63 17.8602 6.63 17.8602C7.5 19.3802 8.97 18.9302 9.54 18.6902C9.63 18.0402 9.89 17.6002 10.17 17.3502C7.95 17.1002 5.62 16.2402 5.62 12.4302C5.62 11.3202 6 10.4302 6.65 9.72018C6.55 9.47018 6.2 8.43018 6.75 7.08018C6.75 7.08018 7.59 6.81018 9.5 8.10018C10.29 7.88018 11.15 7.77018 12 7.77018C12.85 7.77018 13.71 7.88018 14.5 8.10018C16.41 6.81018 17.25 7.08018 17.25 7.08018C17.8 8.43018 17.45 9.47018 17.35 9.72018C18 10.4302 18.38 11.3202 18.38 12.4302C18.38 16.2502 16.04 17.0902 13.81 17.3402C14.17 17.6502 14.5 18.2602 14.5 19.1902V21.9302C14.5 22.2002 14.66 22.5202 15.17 22.4302C19.14 21.0902 22 17.3502 22 12.9302C22 11.617 21.7413 10.3166 21.2388 9.10334C20.7362 7.89009 19.9997 6.78769 19.0711 5.85911C18.1425 4.93052 17.0401 4.19393 15.8268 3.69138C14.6136 3.18883 13.3132 2.93018 12 2.93018Z" fill="black"/>
</svg>
