<svg width="25" height="25" viewBox="0 0 25 25" fill="none" xmlns="http://www.w3.org/2000/svg">
<path d="M21.2164 4.42472C21.0272 4.23689 20.7899 4.10484 20.5306 4.04309C20.2712 3.98135 19.9999 3.99229 19.7464 4.07472L5.11635 8.95472C4.84503 9.04069 4.60526 9.20515 4.42734 9.42731C4.24942 9.64947 4.14133 9.91938 4.11672 10.2029C4.09211 10.4865 4.15208 10.771 4.28907 11.0205C4.42605 11.27 4.6339 11.4733 4.88635 11.6047L10.9564 14.6047L13.9564 20.6947C14.0769 20.9331 14.2615 21.1332 14.4893 21.2727C14.7171 21.4123 14.9792 21.4857 15.2464 21.4847H15.3464C15.6324 21.4636 15.9056 21.357 16.1303 21.1787C16.355 21.0003 16.5209 20.7586 16.6064 20.4847L21.5564 5.89472C21.6447 5.64265 21.6597 5.37066 21.5995 5.11042C21.5393 4.85017 21.4064 4.61238 21.2164 4.42472ZM5.73635 10.3347L18.5064 6.07472L11.4164 13.1647L5.73635 10.3347ZM15.3164 19.9047L12.4764 14.2247L19.5664 7.13472L15.3164 19.9047Z" fill="black"/>
</svg>
